<svg width="186" height="24" viewBox="0 0 186 24" fill="none" xmlns="http://www.w3.org/2000/svg">
<path d="M14.32 19L20.56 5H23.76L30.02 19H26.62L21.5 6.64H22.78L17.64 19H14.32ZM17.44 16L18.3 13.54H25.5L26.38 16H17.44ZM35.7748 19.16C34.7615 19.16 33.8482 18.9333 33.0348 18.48C32.2215 18.0133 31.5748 17.3667 31.0948 16.54C30.6282 15.7133 30.3948 14.74 30.3948 13.62C30.3948 12.4867 30.6282 11.5067 31.0948 10.68C31.5748 9.85333 32.2215 9.21333 33.0348 8.76C33.8482 8.30667 34.7615 8.08 35.7748 8.08C36.6815 8.08 37.4748 8.28 38.1548 8.68C38.8348 9.08 39.3615 9.68667 39.7348 10.5C40.1082 11.3133 40.2948 12.3533 40.2948 13.62C40.2948 14.8733 40.1148 15.9133 39.7548 16.74C39.3948 17.5533 38.8748 18.16 38.1948 18.56C37.5282 18.96 36.7215 19.16 35.7748 19.16ZM36.3148 16.6C36.8215 16.6 37.2815 16.48 37.6948 16.24C38.1082 16 38.4348 15.66 38.6748 15.22C38.9282 14.7667 39.0548 14.2333 39.0548 13.62C39.0548 12.9933 38.9282 12.46 38.6748 12.02C38.4348 11.58 38.1082 11.24 37.6948 11C37.2815 10.76 36.8215 10.64 36.3148 10.64C35.7948 10.64 35.3282 10.76 34.9148 11C34.5015 11.24 34.1682 11.58 33.9148 12.02C33.6748 12.46 33.5548 12.9933 33.5548 13.62C33.5548 14.2333 33.6748 14.7667 33.9148 15.22C34.1682 15.66 34.5015 16 34.9148 16.24C35.3282 16.48 35.7948 16.6 36.3148 16.6ZM39.1348 19V16.8L39.1948 13.6L38.9948 10.42V4.16H42.1148V19H39.1348ZM58.7825 8.08C59.6358 8.08 60.3892 8.25333 61.0425 8.6C61.7092 8.93333 62.2292 9.45333 62.6025 10.16C62.9892 10.8533 63.1825 11.7467 63.1825 12.84V19H60.0625V13.32C60.0625 12.4533 59.8825 11.8133 59.5225 11.4C59.1625 10.9867 58.6558 10.78 58.0025 10.78C57.5492 10.78 57.1425 10.8867 56.7825 11.1C56.4225 11.3 56.1425 11.6067 55.9425 12.02C55.7425 12.4333 55.6425 12.96 55.6425 13.6V19H52.5225V13.32C52.5225 12.4533 52.3425 11.8133 51.9825 11.4C51.6358 10.9867 51.1358 10.78 50.4825 10.78C50.0292 10.78 49.6225 10.8867 49.2625 11.1C48.9025 11.3 48.6225 11.6067 48.4225 12.02C48.2225 12.4333 48.1225 12.96 48.1225 13.6V19H45.0025V8.24H47.9825V11.18L47.4225 10.32C47.7958 9.58667 48.3225 9.03333 49.0025 8.66C49.6958 8.27333 50.4825 8.08 51.3625 8.08C52.3492 8.08 53.2092 8.33333 53.9425 8.84C54.6892 9.33333 55.1825 10.0933 55.4225 11.12L54.3225 10.82C54.6825 9.98 55.2558 9.31333 56.0425 8.82C56.8425 8.32667 57.7558 8.08 58.7825 8.08ZM65.9791 19V8.24H69.0991V19H65.9791ZM67.5391 6.74C66.9657 6.74 66.4991 6.57333 66.1391 6.24C65.7791 5.90667 65.5991 5.49333 65.5991 5C65.5991 4.50667 65.7791 4.09333 66.1391 3.76C66.4991 3.42667 66.9657 3.26 67.5391 3.26C68.1124 3.26 68.5791 3.42 68.9391 3.74C69.2991 4.04667 69.4791 4.44667 69.4791 4.94C69.4791 5.46 69.2991 5.89333 68.9391 6.24C68.5924 6.57333 68.1257 6.74 67.5391 6.74ZM78.5347 8.08C79.388 8.08 80.148 8.25333 80.8147 8.6C81.4947 8.93333 82.028 9.45333 82.4147 10.16C82.8014 10.8533 82.9947 11.7467 82.9947 12.84V19H79.8747V13.32C79.8747 12.4533 79.6814 11.8133 79.2947 11.4C78.9214 10.9867 78.388 10.78 77.6947 10.78C77.2014 10.78 76.7547 10.8867 76.3547 11.1C75.968 11.3 75.6614 11.6133 75.4347 12.04C75.2214 12.4667 75.1147 13.0133 75.1147 13.68V19H71.9947V8.24H74.9747V11.22L74.4147 10.32C74.8014 9.6 75.3547 9.04667 76.0747 8.66C76.7947 8.27333 77.6147 8.08 78.5347 8.08ZM96.3069 19.24C95.1869 19.24 94.1135 19.0933 93.0869 18.8C92.0602 18.4933 91.2335 18.1 90.6069 17.62L91.7069 15.18C92.3069 15.6067 93.0135 15.96 93.8269 16.24C94.6535 16.5067 95.4869 16.64 96.3269 16.64C96.9669 16.64 97.4802 16.58 97.8669 16.46C98.2669 16.3267 98.5602 16.1467 98.7469 15.92C98.9335 15.6933 99.0269 15.4333 99.0269 15.14C99.0269 14.7667 98.8802 14.4733 98.5869 14.26C98.2935 14.0333 97.9069 13.8533 97.4269 13.72C96.9469 13.5733 96.4135 13.44 95.8269 13.32C95.2535 13.1867 94.6735 13.0267 94.0869 12.84C93.5135 12.6533 92.9869 12.4133 92.5069 12.12C92.0269 11.8267 91.6335 11.44 91.3269 10.96C91.0335 10.48 90.8869 9.86667 90.8869 9.12C90.8869 8.32 91.1002 7.59333 91.5269 6.94C91.9669 6.27333 92.6202 5.74667 93.4869 5.36C94.3669 4.96 95.4669 4.76 96.7869 4.76C97.6669 4.76 98.5335 4.86667 99.3869 5.08C100.24 5.28 100.994 5.58667 101.647 6L100.647 8.46C99.9935 8.08667 99.3402 7.81333 98.6869 7.64C98.0335 7.45333 97.3935 7.36 96.7669 7.36C96.1402 7.36 95.6269 7.43333 95.2269 7.58C94.8269 7.72667 94.5402 7.92 94.3669 8.16C94.1935 8.38667 94.1069 8.65333 94.1069 8.96C94.1069 9.32 94.2535 9.61333 94.5469 9.84C94.8402 10.0533 95.2269 10.2267 95.7069 10.36C96.1869 10.4933 96.7135 10.6267 97.2869 10.76C97.8735 10.8933 98.4535 11.0467 99.0269 11.22C99.6135 11.3933 100.147 11.6267 100.627 11.92C101.107 12.2133 101.494 12.6 101.787 13.08C102.094 13.56 102.247 14.1667 102.247 14.9C102.247 15.6867 102.027 16.4067 101.587 17.06C101.147 17.7133 100.487 18.24 99.6069 18.64C98.7402 19.04 97.6402 19.24 96.3069 19.24ZM108.641 19.16C107.374 19.16 106.387 18.84 105.681 18.2C104.974 17.5467 104.621 16.58 104.621 15.3V5.86H107.741V15.26C107.741 15.7133 107.861 16.0667 108.101 16.32C108.341 16.56 108.667 16.68 109.081 16.68C109.574 16.68 109.994 16.5467 110.341 16.28L111.181 18.48C110.861 18.7067 110.474 18.88 110.021 19C109.581 19.1067 109.121 19.16 108.641 19.16ZM102.961 10.88V8.48H110.421V10.88H102.961ZM117.472 19.16C116.579 19.16 115.779 18.9867 115.072 18.64C114.379 18.2933 113.839 17.7667 113.452 17.06C113.066 16.34 112.872 15.4267 112.872 14.32V8.24H115.992V13.86C115.992 14.7533 116.179 15.4133 116.552 15.84C116.939 16.2533 117.479 16.46 118.172 16.46C118.652 16.46 119.079 16.36 119.452 16.16C119.826 15.9467 120.119 15.6267 120.332 15.2C120.546 14.76 120.652 14.2133 120.652 13.56V8.24H123.772V19H120.812V16.04L121.352 16.9C120.992 17.6467 120.459 18.2133 119.752 18.6C119.059 18.9733 118.299 19.16 117.472 19.16ZM131.283 19.16C130.269 19.16 129.356 18.9333 128.543 18.48C127.729 18.0133 127.083 17.3667 126.603 16.54C126.136 15.7133 125.903 14.74 125.903 13.62C125.903 12.4867 126.136 11.5067 126.603 10.68C127.083 9.85333 127.729 9.21333 128.543 8.76C129.356 8.30667 130.269 8.08 131.283 8.08C132.189 8.08 132.983 8.28 133.663 8.68C134.343 9.08 134.869 9.68667 135.243 10.5C135.616 11.3133 135.803 12.3533 135.803 13.62C135.803 14.8733 135.623 15.9133 135.263 16.74C134.903 17.5533 134.383 18.16 133.703 18.56C133.036 18.96 132.229 19.16 131.283 19.16ZM131.823 16.6C132.329 16.6 132.789 16.48 133.203 16.24C133.616 16 133.943 15.66 134.183 15.22C134.436 14.7667 134.563 14.2333 134.563 13.62C134.563 12.9933 134.436 12.46 134.183 12.02C133.943 11.58 133.616 11.24 133.203 11C132.789 10.76 132.329 10.64 131.823 10.64C131.303 10.64 130.836 10.76 130.423 11C130.009 11.24 129.676 11.58 129.423 12.02C129.183 12.46 129.063 12.9933 129.063 13.62C129.063 14.2333 129.183 14.7667 129.423 15.22C129.676 15.66 130.009 16 130.423 16.24C130.836 16.48 131.303 16.6 131.823 16.6ZM134.643 19V16.8L134.703 13.6L134.503 10.42V4.16H137.623V19H134.643ZM145.85 19.16C144.624 19.16 143.544 18.92 142.61 18.44C141.69 17.96 140.977 17.3067 140.47 16.48C139.964 15.64 139.71 14.6867 139.71 13.62C139.71 12.54 139.957 11.5867 140.45 10.76C140.957 9.92 141.644 9.26667 142.51 8.8C143.377 8.32 144.357 8.08 145.45 8.08C146.504 8.08 147.45 8.30667 148.29 8.76C149.144 9.2 149.817 9.84 150.31 10.68C150.804 11.5067 151.05 12.5 151.05 13.66C151.05 13.78 151.044 13.92 151.03 14.08C151.017 14.2267 151.004 14.3667 150.99 14.5H142.25V12.68H149.35L148.15 13.22C148.15 12.66 148.037 12.1733 147.81 11.76C147.584 11.3467 147.27 11.0267 146.87 10.8C146.47 10.56 146.004 10.44 145.47 10.44C144.937 10.44 144.464 10.56 144.05 10.8C143.65 11.0267 143.337 11.3533 143.11 11.78C142.884 12.1933 142.77 12.6867 142.77 13.26V13.74C142.77 14.3267 142.897 14.8467 143.15 15.3C143.417 15.74 143.784 16.08 144.25 16.32C144.73 16.5467 145.29 16.66 145.93 16.66C146.504 16.66 147.004 16.5733 147.43 16.4C147.87 16.2267 148.27 15.9667 148.63 15.62L150.29 17.42C149.797 17.98 149.177 18.4133 148.43 18.72C147.684 19.0133 146.824 19.16 145.85 19.16ZM159.668 8.08C160.521 8.08 161.281 8.25333 161.948 8.6C162.628 8.93333 163.161 9.45333 163.548 10.16C163.934 10.8533 164.128 11.7467 164.128 12.84V19H161.008V13.32C161.008 12.4533 160.814 11.8133 160.428 11.4C160.054 10.9867 159.521 10.78 158.828 10.78C158.334 10.78 157.888 10.8867 157.488 11.1C157.101 11.3 156.794 11.6133 156.568 12.04C156.354 12.4667 156.248 13.0133 156.248 13.68V19H153.128V8.24H156.108V11.22L155.548 10.32C155.934 9.6 156.488 9.04667 157.208 8.66C157.928 8.27333 158.748 8.08 159.668 8.08ZM171.356 19.16C170.089 19.16 169.102 18.84 168.396 18.2C167.689 17.5467 167.336 16.58 167.336 15.3V5.86H170.456V15.26C170.456 15.7133 170.576 16.0667 170.816 16.32C171.056 16.56 171.382 16.68 171.796 16.68C172.289 16.68 172.709 16.5467 173.056 16.28L173.896 18.48C173.576 18.7067 173.189 18.88 172.736 19C172.296 19.1067 171.836 19.16 171.356 19.16ZM165.676 10.88V8.48H173.136V10.88H165.676ZM179.267 19.16C178.347 19.16 177.46 19.0533 176.607 18.84C175.767 18.6133 175.1 18.3333 174.607 18L175.647 15.76C176.14 16.0667 176.72 16.32 177.387 16.52C178.067 16.7067 178.734 16.8 179.387 16.8C180.107 16.8 180.614 16.7133 180.907 16.54C181.214 16.3667 181.367 16.1267 181.367 15.82C181.367 15.5667 181.247 15.38 181.007 15.26C180.78 15.1267 180.474 15.0267 180.087 14.96C179.7 14.8933 179.274 14.8267 178.807 14.76C178.354 14.6933 177.894 14.6067 177.427 14.5C176.96 14.38 176.534 14.2067 176.147 13.98C175.76 13.7533 175.447 13.4467 175.207 13.06C174.98 12.6733 174.867 12.1733 174.867 11.56C174.867 10.88 175.06 10.28 175.447 9.76C175.847 9.24 176.42 8.83333 177.167 8.54C177.914 8.23333 178.807 8.08 179.847 8.08C180.58 8.08 181.327 8.16 182.087 8.32C182.847 8.48 183.48 8.71333 183.987 9.02L182.947 11.24C182.427 10.9333 181.9 10.7267 181.367 10.62C180.847 10.5 180.34 10.44 179.847 10.44C179.154 10.44 178.647 10.5333 178.327 10.72C178.007 10.9067 177.847 11.1467 177.847 11.44C177.847 11.7067 177.96 11.9067 178.187 12.04C178.427 12.1733 178.74 12.28 179.127 12.36C179.514 12.44 179.934 12.5133 180.387 12.58C180.854 12.6333 181.32 12.72 181.787 12.84C182.254 12.96 182.674 13.1333 183.047 13.36C183.434 13.5733 183.747 13.8733 183.987 14.26C184.227 14.6333 184.347 15.1267 184.347 15.74C184.347 16.4067 184.147 17 183.747 17.52C183.347 18.0267 182.767 18.4267 182.007 18.72C181.26 19.0133 180.347 19.16 179.267 19.16Z" fill="black"/>
<path d="M2 0L2 23" stroke="#F8D442" stroke-width="4"/>
</svg>
